<svg width="1600" height="900" viewBox="0 0 1600 900" fill="none" xmlns="http://www.w3.org/2000/svg">
  <defs>
    <linearGradient id="bg" x1="0" y1="0" x2="1600" y2="900" gradientUnits="userSpaceOnUse">
      <stop stop-color="#7C3AED" stop-opacity="0.18"/>
      <stop offset="0.45" stop-color="#06B6D4" stop-opacity="0.14"/>
      <stop offset="1" stop-color="#22C55E" stop-opacity="0.16"/>
    </linearGradient>
    <linearGradient id="fog" x1="0" y1="0" x2="0" y2="900" gradientUnits="userSpaceOnUse">
      <stop stop-color="#FFFFFF" stop-opacity="0.75"/>
      <stop offset="0.65" stop-color="#FFFFFF" stop-opacity="0.22"/>
      <stop offset="1" stop-color="#FFFFFF" stop-opacity="0.08"/>
    </linearGradient>
  </defs>

  <rect width="1600" height="900" fill="url(#bg)"/>
  <rect width="1600" height="900" fill="url(#fog)"/>

  <!-- far ridge -->
  <path d="M0 660C170 600 320 720 520 670C720 620 810 540 980 585C1150 630 1240 725 1410 690C1500 672 1550 650 1600 660V900H0V660Z" fill="#0B1220" fill-opacity="0.08"/>

  <!-- near ridge -->
  <path d="M0 730C200 680 360 790 560 750C760 710 860 610 1040 650C1220 690 1320 820 1500 780C1560 767 1585 754 1600 760V900H0V730Z" fill="#0B1220" fill-opacity="0.10"/>

  <!-- dots -->
  <g opacity="0.25">
    <circle cx="120" cy="110" r="6" fill="#FFFFFF"/>
    <circle cx="220" cy="170" r="4" fill="#FFFFFF"/>
    <circle cx="1460" cy="130" r="5" fill="#FFFFFF"/>
    <circle cx="1360" cy="210" r="3" fill="#FFFFFF"/>
  </g>
</svg>
