<svg width="1200" height="800" viewBox="0 0 1200 800" fill="none" xmlns="http://www.w3.org/2000/svg">
  <defs>
    <linearGradient id="bg" x1="0" y1="0" x2="1200" y2="800" gradientUnits="userSpaceOnUse">
      <stop stop-color="#0EA5E9"/>
      <stop offset="0.55" stop-color="#22C55E"/>
      <stop offset="1" stop-color="#A855F7"/>
    </linearGradient>
    <filter id="blur" x="-40" y="-40" width="1280" height="880" filterUnits="userSpaceOnUse" color-interpolation-filters="sRGB">
      <feGaussianBlur stdDeviation="22"/>
    </filter>
  </defs>

  <rect width="1200" height="800" rx="48" fill="url(#bg)"/>

  <g opacity="0.55" filter="url(#blur)">
    <circle cx="260" cy="230" r="190" fill="#F97316"/>
    <circle cx="950" cy="220" r="230" fill="#60A5FA"/>
    <circle cx="860" cy="610" r="260" fill="#34D399"/>
  </g>

  <!-- hotel silhouette -->
  <path d="M260 640V310C260 286.804 278.804 268 302 268H530C553.196 268 572 286.804 572 310V640" fill="#0B1220" fill-opacity="0.28"/>
  <path d="M210 640H622" stroke="#0B1220" stroke-opacity="0.32" stroke-width="18" stroke-linecap="round"/>

  <g fill="#FFFFFF" fill-opacity="0.78">
    <rect x="302" y="320" width="60" height="60" rx="12"/>
    <rect x="394" y="320" width="60" height="60" rx="12"/>
    <rect x="486" y="320" width="60" height="60" rx="12"/>

    <rect x="302" y="412" width="60" height="60" rx="12"/>
    <rect x="394" y="412" width="60" height="60" rx="12"/>
    <rect x="486" y="412" width="60" height="60" rx="12"/>

    <rect x="344" y="520" width="140" height="120" rx="24"/>
  </g>
</svg>
